<?xml version="1.0" encoding="utf-8"?>
<!-- Generator: Adobe Illustrator 15.1.0, SVG Export Plug-In . SVG Version: 6.00 Build 0)  -->
<!DOCTYPE svg PUBLIC "-//W3C//DTD SVG 1.1//EN" "http://www.w3.org/Graphics/SVG/1.1/DTD/svg11.dtd">
<svg version="1.1" id="Layer_1" xmlns="http://www.w3.org/2000/svg" xmlns:xlink="http://www.w3.org/1999/xlink" x="0px" y="0px"
	 width="225.585px" height="51.413px" viewBox="0 0 225.585 51.413" enable-background="new 0 0 225.585 51.413"
	 xml:space="preserve">
<polygon points="22.74,17.802 22.74,48.762 11.429,48.762 11.429,17.802 0,17.802 0,7.951 34.169,7.951 34.169,17.802 "/>
<rect x="41.048" y="2.65" width="11.543" height="40.811"/>
<path d="M91.482,40.811v-9.736c0-2.02,0.021-3.935,0.057-5.742c0.041-1.805,0.097-3.508,0.175-5.103
	c-0.31,0.776-0.657,1.636-1.045,2.567c-0.388,0.932-0.797,1.873-1.222,2.826c-0.424,0.954-0.854,1.885-1.278,2.801
	c-0.43,0.91-0.818,1.738-1.166,2.475l-5.346,11.314L76.31,30.899c-0.352-0.736-0.74-1.564-1.165-2.475
	c-0.425-0.916-0.854-1.847-1.278-2.801c-0.425-0.953-0.834-1.894-1.222-2.826c-0.389-0.931-0.735-1.791-1.046-2.567
	c0.078,1.595,0.135,3.298,0.176,5.103c0.036,1.807,0.057,3.722,0.057,5.742v9.736H61.164V0h10.388l5.027,10.902
	c0.621,1.32,1.206,2.593,1.75,3.82c0.543,1.222,1.04,2.37,1.49,3.437c0.445,1.072,0.834,2.035,1.165,2.888
	c0.331,0.855,0.574,1.575,0.729,2.159c0.353-1.17,0.974-2.811,1.87-4.928c0.895-2.117,1.987-4.576,3.271-7.376L91.875,0h10.275
	v40.811H91.482z"/>
<path d="M145.3,32.958c0,4.192-1.264,7.433-3.795,9.722c-2.525,2.287-6.371,3.432-11.543,3.432H110.37V5.301h19.711
	c5.053,0,8.696,0.911,10.933,2.743c2.231,1.833,3.349,4.462,3.349,7.89c0,2.219-0.476,3.912-1.428,5.082
	c-0.953,1.165-2.107,2.138-3.469,2.92c1.869,0.776,3.303,1.888,4.317,3.343C144.792,28.74,145.3,30.629,145.3,32.958
	 M133.286,17.456c0-0.9-0.253-1.667-0.755-2.293c-0.508-0.627-1.439-0.942-2.801-0.942h-8.51v6.47h8.51
	c1.319,0,2.246-0.29,2.77-0.879C133.027,19.22,133.286,18.439,133.286,17.456 M134.217,33.17c0-1.206-0.326-2.158-0.988-2.857
	c-0.663-0.698-1.672-1.051-3.033-1.051h-8.976v7.931h8.918c1.398,0,2.428-0.377,3.091-1.14
	C133.891,35.298,134.217,34.335,134.217,33.17"/>
<path d="M174.51,51.413l-6.646-13.76h-4.55v13.76h-11.14V10.602h18.252c2.37,0,4.54,0.243,6.501,0.725
	c1.963,0.486,3.645,1.257,5.042,2.302c1.403,1.051,2.479,2.423,3.241,4.111c0.755,1.692,1.133,3.743,1.133,6.155
	c0,3.069-0.662,5.574-1.981,7.521c-1.321,1.94-3.112,3.421-5.363,4.43l8.163,15.566H174.51z M175.09,24.184
	c0-1.283-0.378-2.329-1.134-3.146c-0.761-0.819-2.034-1.227-3.82-1.227h-6.822v8.924h6.646c1.863,0,3.188-0.389,3.965-1.17
	C174.702,26.788,175.09,25.664,175.09,24.184"/>
<polygon points="193.921,48.762 193.921,7.951 225.176,7.951 225.176,17.455 205.119,17.455 205.119,22.875 217.189,22.875 
	217.189,32.264 205.119,32.264 205.119,39.258 225.585,39.258 225.585,48.762 "/>
</svg>
