<svg xmlns="http://www.w3.org/2000/svg" width="100" height="100" viewBox="0 0 100 100"><path d="M100 60V40l-10.927-.657c-.908-3.336-2.232-6.498-3.913-9.433l7.267-8.194L78.284 7.573 70.09 14.84c-2.935-1.68-6.098-3.005-9.434-3.913L60 0H40l-.656 10.927c-3.336.908-6.498 2.232-9.433 3.912l-8.193-7.267L7.573 21.716l7.267 8.194c-1.68 2.935-3.005 6.097-3.913 9.433L0 40v20l10.927.656c.908 3.336 2.232 6.498 3.913 9.434l-7.267 8.194 14.143 14.143 8.194-7.267c2.935 1.68 6.098 3.005 9.434 3.913L40 100h20l.656-10.927c3.336-.908 6.5-2.232 9.434-3.913l8.194 7.267 14.143-14.143-7.267-8.194c1.68-2.936 3.005-6.098 3.913-9.434L100 60zm-50 5c-8.284 0-15-6.716-15-15s6.716-15 15-15 15 6.716 15 15-6.716 15-15 15z"/></svg>