<svg xmlns="http://www.w3.org/2000/svg" class="globicon globicon-gear" width="100" height="100" viewBox="0 0 100 100"><path d="M100 56.865v-13.73l-11.68-.688c-.34-1.733-.8-3.422-1.36-5.063l9.774-6.438-6.865-11.89-10.47 5.248c-1.152-1.314-2.39-2.552-3.704-3.703l5.25-10.47-11.89-6.864-6.44 9.773c-1.64-.56-3.33-1.02-5.062-1.36L56.864 0h-13.73l-.687 11.68c-1.733.34-3.422.8-5.063 1.36l-6.438-9.774-11.89 6.865 5.248 10.47c-1.314 1.152-2.552 2.39-3.703 3.704l-10.47-5.25-6.864 11.89 9.773 6.44c-.56 1.64-1.02 3.33-1.36 5.062L0 43.136v13.73l11.68.687c.34 1.733.8 3.422 1.36 5.063l-9.774 6.438 6.865 11.89 10.473-5.248c1.15 1.314 2.387 2.55 3.7 3.7L19.056 89.87l11.89 6.864 6.44-9.774c1.64.56 3.33 1.02 5.062 1.36l.688 11.68h13.73l.688-11.68c1.733-.34 3.422-.8 5.063-1.36l6.438 9.774 11.89-6.865-5.248-10.473c1.314-1.15 2.55-2.387 3.7-3.7l10.473 5.248 6.864-11.89-9.774-6.44c.56-1.64 1.02-3.33 1.36-5.062l11.68-.688zM70.6 50c0 11.37-9.23 20.6-20.6 20.6S29.4 61.37 29.4 50c0-11.37 9.23-20.6 20.6-20.6S70.6 38.63 70.6 50z"/></svg>