<?xml version="1.0" encoding="utf-8"?>
<!-- Generator: Adobe Illustrator 16.0.0, SVG Export Plug-In . SVG Version: 6.00 Build 0)  -->
<!DOCTYPE svg PUBLIC "-//W3C//DTD SVG 1.1//EN" "http://www.w3.org/Graphics/SVG/1.1/DTD/svg11.dtd">
<svg version="1.1" id="Layer_1" xmlns="http://www.w3.org/2000/svg" xmlns:xlink="http://www.w3.org/1999/xlink" x="0px" y="0px"
	 width="100px" height="100px" viewBox="0 0 100 100" enable-background="new 0 0 100 100" xml:space="preserve">
<path d="M100,56.865v-13.73l-11.681-0.688c-0.34-1.733-0.799-3.422-1.358-5.063l9.773-6.438l-6.865-11.891l-10.47,5.249
	c-1.151-1.314-2.389-2.552-3.703-3.703l5.249-10.47L69.055,3.266l-6.438,9.773c-1.642-0.56-3.33-1.019-5.063-1.358L56.865,0h-13.73
	l-0.688,11.681c-1.733,0.34-3.422,0.799-5.063,1.358l-6.438-9.773l-11.891,6.865l5.249,10.47c-1.314,1.151-2.552,2.389-3.703,3.703
	l-10.47-5.249L3.266,30.945l9.773,6.438c-0.56,1.642-1.019,3.33-1.358,5.063L0,43.135v13.73l11.681,0.688
	c0.34,1.733,0.799,3.422,1.359,5.063l-9.774,6.438l6.865,11.891l10.472-5.249c1.15,1.314,2.387,2.551,3.701,3.701l-5.249,10.472
	l11.891,6.865l6.438-9.774c1.642,0.561,3.33,1.02,5.063,1.359L43.135,100h13.73l0.688-11.681c1.733-0.34,3.422-0.799,5.063-1.359
	l6.438,9.774l11.891-6.865l-5.249-10.472c1.314-1.15,2.551-2.387,3.701-3.701l10.472,5.249l6.865-11.891l-9.774-6.438
	c0.561-1.642,1.02-3.33,1.359-5.063L100,56.865z M70.601,49.999c0,11.37-9.231,20.602-20.601,20.602s-20.601-9.231-20.601-20.602
	c0-11.369,9.231-20.6,20.601-20.6S70.601,38.63,70.601,49.999z"/>
</svg>
