<svg xmlns="http://www.w3.org/2000/svg" width="149" height="452" viewBox="0 0 149 452"><path fill="#F5FAF8" d="M60.5 0h32.486v43.432H60.5z"/><circle fill="#FCD8D1" cx="68.833" cy="37.518" r="16.517"/><path fill="#FCDD7C" d="M85.35 5.406S72.467 47.282 72.467 47.44c0 1.83 5.768 3.31 12.883 3.31s12.883-1.48 12.883-3.31c0-.158-12.883-42.034-12.883-42.034z"/><path fill="#F4F7E7" d="M91 0v42H62V0H0v452h149V0z"/><path fill="#E5E8D4" d="M106.5 0h29v42h-29zM13.5 0h29v42h-29z"/><g fill="#E5E8D4"><path d="M13.5 78h29v44h-29zM60.5 78h29v44h-29zM106.5 78h29v44h-29z"/></g><g fill="#E5E8D4"><path d="M13.5 158h29v44h-29zM60.5 158h29v44h-29zM106.5 158h29v44h-29z"/></g><g fill="#E5E8D4"><path d="M13.5 240h29v44h-29zM60.5 240h29v44h-29zM106.5 240h29v44h-29z"/></g><g fill="#E5E8D4"><path d="M13.5 320h29v44h-29zM60.5 320h29v44h-29zM106.5 320h29v44h-29z"/></g><g fill="#E5E5E5"><path d="M44 393h29v59H44zM76 393h29v59H76z"/></g></svg>