<svg xmlns="http://www.w3.org/2000/svg" width="22.061" height="17.249" viewBox="0 0 22.061 17.249"><path fill="#333" d="M19.145 14.88c-.364 1.694-3.03 1.762-4.34 1.48-1.308-.28-3.71-1.438-3.346-3.132.362-1.693 3.028-1.76 4.337-1.48.793.172 1.554.485 2.205.965l1.386-6.45-9.835.865-1.83 8.515c-.363 1.693-3.028 1.762-4.338 1.48-1.31-.28-3.71-1.438-3.348-3.132.364-1.692 3.03-1.76 4.34-1.478.79.17 1.553.484 2.204.964L9.077 1.862c.108-.505.54-.876 1.054-.93L20.782.004c.116-.012.228 0 .348.024.636.137 1.04.765.904 1.4l-2.89 13.453z"/></svg>